<?xml version="1.0" encoding="utf-8"?>
<svg version="1.1" xmlns:xlink="http://www.w3.org/1999/xlink" width="1064px" height="32px" xmlns="http://www.w3.org/2000/svg">
  <g transform="matrix(1 0 0 1 -40 -1268 )">
    <path d="M 41 1272  A 3 3 0 0 1 44 1269 L 1100 1269  A 3 3 0 0 1 1103 1272 L 1103 1296  A 3 3 0 0 1 1100 1299 L 44 1299  A 3 3 0 0 1 41 1296 L 41 1272  Z " fill-rule="nonzero" fill="#ffffff" stroke="none" />
    <path d="M 40.5 1272  A 3.5 3.5 0 0 1 44 1268.5 L 1100 1268.5  A 3.5 3.5 0 0 1 1103.5 1272 L 1103.5 1296  A 3.5 3.5 0 0 1 1100 1299.5 L 44 1299.5  A 3.5 3.5 0 0 1 40.5 1296 L 40.5 1272  Z " stroke-width="1" stroke-dasharray="9,4" stroke="#d9d9d9" fill="none" stroke-dashoffset="0.5" />
  </g>
</svg>