<?xml version="1.0" encoding="utf-8"?>
<svg version="1.1" xmlns:xlink="http://www.w3.org/1999/xlink" width="1072px" height="32px" xmlns="http://www.w3.org/2000/svg">
  <g transform="matrix(1 0 0 1 -32 -546 )">
    <path d="M 33 550  A 3 3 0 0 1 36 547 L 1100 547  A 3 3 0 0 1 1103 550 L 1103 574  A 3 3 0 0 1 1100 577 L 36 577  A 3 3 0 0 1 33 574 L 33 550  Z " fill-rule="nonzero" fill="#ffffff" stroke="none" />
    <path d="M 32.5 550  A 3.5 3.5 0 0 1 36 546.5 L 1100 546.5  A 3.5 3.5 0 0 1 1103.5 550 L 1103.5 574  A 3.5 3.5 0 0 1 1100 577.5 L 36 577.5  A 3.5 3.5 0 0 1 32.5 574 L 32.5 550  Z " stroke-width="1" stroke-dasharray="9,4" stroke="#d9d9d9" fill="none" stroke-dashoffset="0.5" />
  </g>
</svg>