<?xml version="1.0" encoding="utf-8"?>
<svg version="1.1" xmlns:xlink="http://www.w3.org/1999/xlink" width="488px" height="32px" xmlns="http://www.w3.org/2000/svg">
  <g transform="matrix(1 0 0 1 -32 -368 )">
    <path d="M 33 372  A 3 3 0 0 1 36 369 L 516 369  A 3 3 0 0 1 519 372 L 519 396  A 3 3 0 0 1 516 399 L 36 399  A 3 3 0 0 1 33 396 L 33 372  Z " fill-rule="nonzero" fill="#ffffff" stroke="none" />
    <path d="M 32.5 372  A 3.5 3.5 0 0 1 36 368.5 L 516 368.5  A 3.5 3.5 0 0 1 519.5 372 L 519.5 396  A 3.5 3.5 0 0 1 516 399.5 L 36 399.5  A 3.5 3.5 0 0 1 32.5 396 L 32.5 372  Z " stroke-width="1" stroke-dasharray="9,4" stroke="#d9d9d9" fill="none" stroke-dashoffset="0.5" />
  </g>
</svg>