<?xml version="1.0" encoding="utf-8"?>
<svg version="1.1" xmlns:xlink="http://www.w3.org/1999/xlink" width="486px" height="32px" xmlns="http://www.w3.org/2000/svg">
  <g transform="matrix(1 0 0 1 -610 -368 )">
    <path d="M 611 372  A 3 3 0 0 1 614 369 L 1092 369  A 3 3 0 0 1 1095 372 L 1095 396  A 3 3 0 0 1 1092 399 L 614 399  A 3 3 0 0 1 611 396 L 611 372  Z " fill-rule="nonzero" fill="#ffffff" stroke="none" />
    <path d="M 610.5 372  A 3.5 3.5 0 0 1 614 368.5 L 1092 368.5  A 3.5 3.5 0 0 1 1095.5 372 L 1095.5 396  A 3.5 3.5 0 0 1 1092 399.5 L 614 399.5  A 3.5 3.5 0 0 1 610.5 396 L 610.5 372  Z " stroke-width="1" stroke-dasharray="9,4" stroke="#d9d9d9" fill="none" stroke-dashoffset="0.5" />
  </g>
</svg>