<?xml version="1.0" encoding="utf-8"?>
<svg version="1.1" xmlns:xlink="http://www.w3.org/1999/xlink" width="1064px" height="32px" xmlns="http://www.w3.org/2000/svg">
  <g transform="matrix(1 0 0 1 -48 -665 )">
    <path d="M 49 669  A 3 3 0 0 1 52 666 L 1108 666  A 3 3 0 0 1 1111 669 L 1111 693  A 3 3 0 0 1 1108 696 L 52 696  A 3 3 0 0 1 49 693 L 49 669  Z " fill-rule="nonzero" fill="#ffffff" stroke="none" />
    <path d="M 48.5 669  A 3.5 3.5 0 0 1 52 665.5 L 1108 665.5  A 3.5 3.5 0 0 1 1111.5 669 L 1111.5 693  A 3.5 3.5 0 0 1 1108 696.5 L 52 696.5  A 3.5 3.5 0 0 1 48.5 693 L 48.5 669  Z " stroke-width="1" stroke-dasharray="9,4" stroke="#d9d9d9" fill="none" stroke-dashoffset="0.5" />
  </g>
</svg>