<?xml version="1.0" encoding="utf-8"?>
<svg version="1.1" xmlns:xlink="http://www.w3.org/1999/xlink" width="14px" height="14px" xmlns="http://www.w3.org/2000/svg">
  <g transform="matrix(1 0 0 1 -118 -1383 )">
    <path d="M 125 1383  C 128.92 1383  132 1386.08  132 1390  C 132 1393.92  128.92 1397  125 1397  C 121.08 1397  118 1393.92  118 1390  C 118 1386.08  121.08 1383  125 1383  Z " fill-rule="nonzero" fill="#ffffff" stroke="none" fill-opacity="0" />
    <path d="M 125 1383.5  C 128.64 1383.5  131.5 1386.36  131.5 1390  C 131.5 1393.64  128.64 1396.5  125 1396.5  C 121.36 1396.5  118.5 1393.64  118.5 1390  C 118.5 1386.36  121.36 1383.5  125 1383.5  Z " stroke-width="1" stroke="#d9d9d9" fill="none" />
  </g>
</svg>