<?xml version="1.0" encoding="utf-8"?>
<svg version="1.1" xmlns:xlink="http://www.w3.org/1999/xlink" width="16px" height="16px" xmlns="http://www.w3.org/2000/svg">
  <g transform="matrix(1 0 0 1 -675 -971 )">
    <path d="M 683 971  C 687.48 971  691 974.52  691 979  C 691 983.48  687.48 987  683 987  C 678.52 987  675 983.48  675 979  C 675 974.52  678.52 971  683 971  Z " fill-rule="nonzero" fill="#f2f2f2" stroke="none" />
    <path d="M 683 971.5  C 687.2 971.5  690.5 974.8  690.5 979  C 690.5 983.2  687.2 986.5  683 986.5  C 678.8 986.5  675.5 983.2  675.5 979  C 675.5 974.8  678.8 971.5  683 971.5  Z " stroke-width="1" stroke="#d9d9d9" fill="none" />
  </g>
</svg>