<?xml version="1.0" encoding="utf-8"?>
<svg version="1.1" xmlns:xlink="http://www.w3.org/1999/xlink" width="1064px" height="32px" xmlns="http://www.w3.org/2000/svg">
  <g transform="matrix(1 0 0 1 -48 -1051 )">
    <path d="M 49 1055  A 3 3 0 0 1 52 1052 L 1108 1052  A 3 3 0 0 1 1111 1055 L 1111 1079  A 3 3 0 0 1 1108 1082 L 52 1082  A 3 3 0 0 1 49 1079 L 49 1055  Z " fill-rule="nonzero" fill="#ffffff" stroke="none" />
    <path d="M 48.5 1055  A 3.5 3.5 0 0 1 52 1051.5 L 1108 1051.5  A 3.5 3.5 0 0 1 1111.5 1055 L 1111.5 1079  A 3.5 3.5 0 0 1 1108 1082.5 L 52 1082.5  A 3.5 3.5 0 0 1 48.5 1079 L 48.5 1055  Z " stroke-width="1" stroke-dasharray="9,4" stroke="#d9d9d9" fill="none" stroke-dashoffset="0.5" />
  </g>
</svg>