<?xml version="1.0" encoding="utf-8"?>
<svg version="1.1" xmlns:xlink="http://www.w3.org/1999/xlink" width="200px" height="33px" xmlns="http://www.w3.org/2000/svg">
  <g transform="matrix(1 0 0 1 -949 -297 )">
    <path d="M 950 301  A 3 3 0 0 1 953 298 L 1145 298  A 3 3 0 0 1 1148 301 L 1148 326  A 3 3 0 0 1 1145 329 L 953 329  A 3 3 0 0 1 950 326 L 950 301  Z " fill-rule="nonzero" fill="#ff3399" stroke="none" fill-opacity="0.0980392156862745" />
    <path d="M 949.5 301  A 3.5 3.5 0 0 1 953 297.5 L 1145 297.5  A 3.5 3.5 0 0 1 1148.5 301 L 1148.5 326  A 3.5 3.5 0 0 1 1145 329.5 L 953 329.5  A 3.5 3.5 0 0 1 949.5 326 L 949.5 301  Z " stroke-width="1" stroke-dasharray="9,4" stroke="#ff3399" fill="none" stroke-dashoffset="0.5" />
  </g>
</svg>